<?xml version="1.0" encoding="utf-8"?>
<svg width="209.40848867190516" height="85.9" viewBox="0 0 209.40848867190516 85.9" class="css-1j8o68f" xmlns="http://www.w3.org/2000/svg">
  <g id="SvgjsG3801" featurekey="7fT3kx-0" transform="matrix(0.6305730645519482,0,0,0.6305730645519482,59.243312217299426,73.07414256807289)" fill="#f7e9c2">
    <path d="M14.98 7 l-1.4 1.64 q-0.82 -0.84 -1.96 -1.32 t-2.4 -0.48 q-1.64 0 -2.99 0.74 t-2.11 2.02 q-0.78 1.34 -0.78 2.98 q0 1.56 0.84 2.88 q0.8 1.24 2.15 1.97 t2.91 0.73 q1.44 0 2.68 -0.62 t2.06 -1.72 l1.34 1.82 q-1.14 1.28 -2.73 1.99 t-3.37 0.71 q-2.22 0 -4.08 -1.08 q-1.82 -1.04 -2.86 -2.86 q-1.08 -1.86 -1.08 -4.08 q0 -2.14 1.14 -3.94 q1.08 -1.72 2.93 -2.73 t3.97 -1.01 q1.66 0 3.16 0.64 q1.46 0.6 2.58 1.72 z M30.348 7.26 l0 4.96 q0.62 -0.36 1.38 -0.48 q0.56 -0.1 1.44 -0.1 l2.84 0 q1.18 0 1.84 -0.54 q0.7 -0.58 0.7 -1.74 q0 -1.1 -0.74 -1.64 q-0.64 -0.46 -1.8 -0.46 l-5.66 0 z M36.728 17.64 l-1.82 -3.82 l-1.74 0 q-0.82 0 -1.44 0.1 q-0.76 0.14 -1.38 0.48 l0 5.6 l-2.18 0 l0 -14.92 l7.84 0 q1.38 0 2.44 0.52 t1.64 1.48 q0.62 1.02 0.62 2.4 q0 1.68 -0.9 2.76 t-2.54 1.5 l1.16 2.38 q0.5 0.74 0.78 1.04 q0.34 0.38 0.65 0.51 t0.81 0.13 l0.22 0 l0.48 -0.02 l0 2.22 q-1.16 0 -1.72 -0.08 q-0.94 -0.16 -1.6 -0.62 q-0.78 -0.56 -1.32 -1.66 z M59.556 11.64 q1.34 -1.4 2.42 -3.12 t1.72 -3.44 l2.5 0 q-1.02 2.38 -2.48 4.56 q-1.32 1.98 -3.08 3.9 l0 6.46 l-2.16 0 l0 -6.46 q-1.76 -1.92 -3.08 -3.9 q-1.46 -2.18 -2.48 -4.56 l2.5 0 q0.64 1.72 1.72 3.44 t2.42 3.12 z M83.564 11.46 l2.64 0 q2.2 0 2.2 -2.12 q0 -1.1 -0.55 -1.59 t-1.65 -0.49 l-5.48 0 l0 4.8 q0.62 -0.36 1.4 -0.5 q0.58 -0.1 1.44 -0.1 z M80.72399999999999 20 l-2.18 0 l0 -14.92 l7.66 0 q1.32 0 2.3 0.51 t1.52 1.47 t0.54 2.27 t-0.54 2.29 t-1.53 1.51 t-2.29 0.53 l-2.64 0 q-1.72 0 -2.84 0.6 l0 5.74 z M114.51199999999999 7.279999999999999 l-5.26 0 l0 12.72 l-2.12 0 l0 -12.72 l-5.32 0 l0 -2.2 l12.7 0 l0 2.2 z M139.85999999999999 12.440000000000001 q0 -1.6 -0.82 -2.9 q-0.78 -1.26 -2.13 -1.98 t-2.93 -0.72 q-1.64 0 -2.99 0.74 t-2.11 2.02 q-0.78 1.34 -0.78 2.98 q0 1.56 0.84 2.88 q0.8 1.24 2.15 1.97 t2.92 0.73 t2.92 -0.76 t2.13 -2.04 q0.8 -1.34 0.8 -2.92 z M142.01999999999998 12.559999999999999 q0 2.16 -1.12 3.98 q-1.08 1.74 -2.93 2.77 t-3.99 1.03 q-2.22 0 -4.08 -1.08 q-1.82 -1.04 -2.86 -2.86 q-1.08 -1.86 -1.08 -4.08 q0 -2.14 1.14 -3.94 q1.08 -1.72 2.93 -2.73 t3.97 -1.01 q2.18 0 4.04 1.06 q1.82 1.04 2.88 2.82 q1.1 1.86 1.1 4.04 z"/>
  </g>
  <g id="SvgjsG3802" featurekey="nameLeftFeature-0" transform="matrix(2.090592417856904,0,0,2.090592417856904,-2.090592667074941,19.946533426950705)" fill="#ffffff">
    <path d="M3.36 5.58 c0 0.28 0.06 9.76 0.06 10.92 c0 0.26 -0.06 0.52 -0.2 0.74 c-0.1 0.2 -0.3 0.44 -0.56 0.44 c-0.28 0 -0.58 -0.1 -0.86 -0.2 c-0.14 -0.08 -0.48 -0.32 -0.52 0 c-0.06 0.52 -0.22 1.84 -0.28 2.24 c0 0.1 0.26 0.14 0.3 0.16 c0.52 0.1 1.08 0.14 1.6 0.14 c0.54 0.02 1.08 -0.06 1.56 -0.34 c0.82 -0.48 1.46 -1.4 1.46 -2.4 l0.04 -11.12 c0 -0.12 0.04 -0.76 -0.04 -0.96 c-0.12 -0.32 -0.56 -0.24 -0.82 -0.24 c-0.44 0 -0.88 -0.04 -1.3 0 c-0.4 0.04 -0.44 0.16 -0.44 0.62 z M10.68 16.38 c0 -0.7 -0.1 -2.6 -0.08 -3 c0 -0.06 0.04 -0.14 0.06 -0.14 c0.04 0 0.12 0.04 0.14 0.06 c0.64 0.84 3.64 6.66 4 6.68 c0.1 0.02 0.2 0.02 0.3 0.02 c0.68 -0.04 1.28 0 1.96 0 c0.7 0 0.24 -0.68 0.12 -0.86 c-0.18 -0.26 -2.56 -4.52 -2.7 -4.78 c-0.4 -0.68 -0.74 -1.42 -1.14 -2.08 c-0.04 -0.08 -0.08 -0.2 -0.06 -0.28 c0.04 -0.24 0.1 -0.46 0.2 -0.68 c0.48 -0.94 0.98 -1.9 1.56 -2.8 c0.64 -1.02 1 -1.66 1.52 -2.58 c0.12 -0.22 0.2 -0.46 0.28 -0.72 c0.02 -0.1 -0.06 -0.2 -0.18 -0.2 c-0.38 -0.02 -1.76 0 -2.2 0 c-0.2 0 -0.4 0.04 -0.5 0.22 c-0.26 0.5 -2.94 5.4 -3.2 5.84 c-0.02 0.04 -0.08 0.06 -0.14 0.06 c0 0 -0.04 -0.06 -0.04 -0.1 c-0.02 -1.12 0.18 -4.78 0.14 -5.52 c-0.02 -0.44 -0.1 -0.48 -0.54 -0.5 c-0.48 -0.02 -1.14 -0.02 -1.62 -0.02 c-0.44 0 -0.48 0.24 -0.54 0.56 c-0.02 0.06 -0.02 1.94 -0.02 2.78 c0 1.22 -0.1 8.86 0.04 11.28 c0 0.24 0.06 0.38 0.26 0.38 c0.54 -0.04 1.34 0 1.88 0 c0.38 0 0.44 -0.04 0.44 -0.68 c0 -0.86 0.08 -1.64 0.08 -2.7 c0 -0.08 -0.02 -0.16 -0.02 -0.24 z M28.380000000000003 16.64 c0.02 0.96 0 1.94 -0.06 2.9 c0 0.08 -0.06 0.16 -0.12 0.2 c-0.08 0.06 -0.18 0.1 -0.28 0.1 c-1.24 0.2 -2.74 0.3 -3.94 -0.1 c-2.7 -0.92 -4.54 -3.94 -4.54 -7.4 c0 -3.74 2.68 -7.38 6.58 -7.52 c0.52 -0.02 2.3 -0.1 2.24 0.78 c-0.04 0.64 0.02 1.16 0 1.82 c0 0.12 -0.08 0.2 -0.2 0.18 c-1.14 -0.14 -2.44 -0.5 -3.54 0.02 c-0.92 0.44 -1.56 1.38 -1.92 2.3 c-0.64 1.52 -0.5 3.28 -0.06 4.84 c0.34 1.24 1.08 2.7 2.56 2.74 c0.08 0.02 0.84 0.06 0.84 -0.02 l-0.06 -2.56 c-0.02 -0.12 -0.02 -0.24 -0.04 -0.36 s-0.1 -0.16 -0.22 -0.18 c-0.32 0 -0.32 -0.02 -0.64 -0.02 c-0.74 0 -0.58 -0.5 -0.6 -0.66 c-0.02 -0.3 0 -0.58 -0.02 -0.88 c-0.02 -0.28 0.06 -0.5 0.34 -0.54 l0.24 0 c1.04 -0.06 2.1 0.02 3.2 0.02 c0.16 0 0.24 0.2 0.24 0.38 c0.02 0.2 0.02 0.34 0.02 0.54 c0.06 0.98 -0.06 1.98 -0.04 2.96 c0.02 0.16 0.02 0.3 0.02 0.46 z M32.260000000000005 19.84 c0.06 0.02 0.24 0.02 0.42 0.02 c0.4 0 0.52 -1.44 0.56 -1.74 c0.02 -0.24 0.08 -0.26 0.28 -0.3 c1 -0.12 1.5 -0.04 2.5 -0.02 c0.22 0 0.34 0.1 0.4 0.28 l0.14 0.46 c0.12 0.34 0.22 0.76 0.34 1.1 c0.08 0.24 0.1 0.22 0.34 0.22 c0.32 0 1.48 0 1.82 -0.02 c0.46 0 0.14 -0.94 0.08 -1.1 c-0.18 -0.56 -0.22 -1.14 -0.4 -1.7 c-0.08 -0.24 -2.36 -11.06 -2.46 -11.66 c-0.14 -0.36 -0.02 -0.38 -0.34 -0.38 c-0.68 0 -1.4 0.04 -2.1 0 c-0.28 0 -0.26 0.08 -0.3 0.38 c-0.04 0.28 -0.76 3.46 -1.04 4.78 c-0.36 1.66 -0.68 3.26 -1.08 4.9 c-0.14 0.58 -1.1 4.76 -0.98 4.78 c0.06 0.04 0.16 0.02 0.24 0.02 c0.5 0 0.96 0 1.58 -0.02 z M34.88 15.3 l-0.42 0 c-0.56 0 -0.58 0 -0.44 -0.58 c0.1 -0.44 0.64 -2.82 0.76 -3.4 c0.02 -0.04 0.06 -0.08 0.08 -0.08 c0.04 0 0.08 0.04 0.1 0.06 c0.08 0.24 0.16 0.84 0.24 1.08 c0.18 0.76 0.3 1.4 0.48 2.22 c0.18 0.72 0.1 0.72 -0.26 0.72 c-0.18 0 -0.36 -0.02 -0.54 -0.02 z M44.2 5.02 c-0.2 0 -0.4 0.02 -0.6 0.02 c-0.3 0 -0.66 -0.06 -0.72 0.34 c-0.2 1.7 -0.38 3.58 -0.58 5.28 c-0.34 2.8 -0.66 5.68 -0.98 8.48 c-0.04 0.38 -0.08 0.74 0.34 0.82 c0.64 0.04 1.12 0.04 1.66 0.02 c0.2 0.02 0.42 0.04 0.48 -0.2 c0.04 -0.1 0.04 -0.2 0.04 -0.3 c0.04 -0.46 0.64 -6.22 0.88 -6.22 c0.38 0 1.38 4.68 1.86 6.4 c0.06 0.24 0.18 0.34 0.42 0.32 c0.5 -0.04 0.98 0 1.48 0 s0.4 -0.32 0.5 -0.74 c0.12 -0.46 1.28 -6 1.56 -6 c0.32 0 0.98 6.42 1.04 6.56 c0.12 0.28 0.46 0.16 0.7 0.16 c0.36 0 0.7 0.04 1.16 0 c0.34 -0.04 0.68 0.08 0.7 -0.36 c0 -0.1 -0.04 -0.2 -0.06 -0.3 c-0.08 -0.5 -0.18 -1.1 -0.28 -1.6 c-0.14 -1.04 -0.34 -2.06 -0.48 -3.1 c-0.2 -1.64 -0.4 -3.28 -0.58 -4.92 c-0.14 -1.4 -0.34 -2.98 -0.46 -4.38 c-0.04 -0.46 -0.56 -0.3 -0.88 -0.3 l-1.38 0 c-0.22 0 -0.32 0.42 -0.36 0.64 c-0.12 0.56 -1.5 7.78 -1.96 7.78 s-1.94 -6.6 -2.2 -8.04 c-0.06 -0.32 -0.28 -0.42 -0.58 -0.42 z M56.160000000000004 15.9 l-0.02 0 c0 0.5 -0.02 1.02 0 1.54 c0.02 0.64 0.06 1.28 0.1 1.92 c0 0.22 0.06 0.28 0.26 0.32 c0.42 0.1 0.82 0.12 1.24 0.12 c1.08 -0.04 2.16 0.04 3.24 0 c0.44 -0.02 0.64 0.02 1.08 -0.06 c0.4 -0.08 0.54 -0.3 0.54 -0.9 c-0.04 -0.38 -0.02 -0.54 -0.02 -1 c0 -0.66 -0.46 -0.88 -0.86 -0.86 c-0.28 0.02 -1.62 -0.02 -2.16 -0.02 c-0.9 0.02 -0.76 0.14 -0.76 -0.8 c0 -0.76 0.02 -1.74 0.02 -2.52 c0 -0.42 0.04 -0.56 0.44 -0.56 l2.5 0 c0.4 0.06 0.68 -0.22 0.68 -0.64 s0.04 -0.44 0.04 -0.86 l-0.06 -0.6 c-0.04 -0.34 -0.16 -0.46 -0.5 -0.46 c-0.22 0 -0.44 0.02 -0.66 0.04 c-0.86 0.06 -1.26 -0.06 -2.1 0 c-0.28 0 -0.32 -0.04 -0.34 -0.3 c-0.08 -0.78 0 -1.64 0.08 -2.42 c0.02 -0.32 0.1 -0.38 0.4 -0.4 l2.82 -0.02 c0.38 -0.04 0.5 -0.02 0.48 -0.4 c-0.04 -0.58 0.02 -1.18 -0.04 -1.76 c-0.04 -0.32 -0.14 -0.38 -0.5 -0.38 c-0.6 0.02 -0.74 0.02 -1.34 0.06 c-0.6 0.02 -3 0.02 -3.58 0.02 c-0.84 0 -0.9 -0.06 -0.92 0.96 c-0.04 0.8 -0.02 1.62 -0.02 2.44 c0 1.4 -0.08 6.42 -0.04 7.54 z"/>
  </g>
  <g id="SvgjsG3803" featurekey="nameRightFeature-0" transform="matrix(1.8656110771839882,0,0,1.8656110771839882,141.3136834650969,24.40316810283706)" fill="#f26231">
    <path d="M13.360000000000001 14.219999999999999 l0 2.18 c0.02 1.96 -1.54 3.82 -3.56 3.82 c-0.1 -0.02 -0.16 -0.02 -0.24 -0.02 l-0.84 0 c-0.24 0 -0.48 0 -0.72 0.02 l-0.3 0 c-2.02 0 -3.58 -1.78 -3.58 -3.76 l0 -9.7 c0 -1.96 1.58 -3.76 3.58 -3.76 c0.4 0.02 0.8 0.02 1.18 0.02 l0.9 0 c2.02 0 3.6 1.78 3.58 3.76 l0 2.62 l-3.6 0 l0 -1.48 c0.04 -1.94 -0.08 -2.02 -1.32 -2.02 c-0.48 0 -0.78 0.08 -0.78 0.7 l0 10.02 c0 0.68 0.56 0.7 1.06 0.7 c0.92 -0.04 1.04 -1.16 1.04 -2.48 l0 -0.62 l3.6 0 z M10.16 7.42 l0 1.58 l2.8 0 l0 -2.22 c0 -1.74 -1.36 -3.36 -3.16 -3.36 l-0.5 0 c-0.54 0 -1.06 -0.02 -1.6 -0.02 c-1.74 0 -3.18 1.6 -3.18 3.36 l0 9.7 c0 1.78 1.42 3.36 3.18 3.36 c0.42 0 0.88 0.02 1.32 0.02 l0.1 0 c0.38 0 0.78 0 1.14 -0.06 c1.56 -0.24 2.7 -1.78 2.7 -3.38 l0 -1.78 l-2.8 0 l0 0.48 c0 1.1 -0.12 2.64 -1.6 2.64 c-0.5 0 -1.3 -0.2 -1.3 -1.12 l0 -10.02 c0 -0.94 0.6 -1.1 1.18 -1.1 c1.6 0 1.72 0.54 1.72 1.92 z M18.3 3.2399999999999984 l3.44 0 l4 16.76 l-3.58 0 l-0.72 -3.36 l-2.82 0 l-0.72 3.36 l-3.58 0 z M18.28 16.240000000000002 l3.5 0 l0.7 3.36 l2.76 0 l-3.82 -15.96 l-2.8 0 l-3.8 15.96 l2.76 0 z M20.02 7.92 l1.34 6.5 l-2.66 0 z M20.88 14.02 l-0.86 -4.1 l-0.84 4.1 l1.7 0 z M30.320000000000004 13.719999999999999 l0 6.28 l-3.56 0 l0 -16.76 l4.8 0 c0.28 0 0.56 -0.02 0.82 -0.02 c0.3 0 0.6 0.04 0.88 0.12 c1.4 0.4 2.68 1.78 2.64 3.52 l0 0.74 c0 0.86 -0.02 1.72 0 2.58 c0.04 1.32 -0.68 2.5 -1.56 3.14 l2.16 6.68 l-3.64 0 l-1.92 -6.26 c-0.22 -0.02 -0.42 -0.02 -0.62 -0.02 z M29.92 13.32 l1.3 0.02 l1.94 6.26 l2.78 0 l-2.06 -6.42 l0.22 -0.18 c0.86 -0.62 1.4 -1.68 1.4 -2.74 l0 -3.4 c0 -1.72 -1.38 -3.24 -3.12 -3.24 l-5.22 0.02 l0 15.96 l2.76 0 l0 -6.28 z M29.92 5.66 l1.68 0 c0.84 0 1.06 0.86 1.06 1.3 l0 3.3 c0 0.6 -0.26 1.28 -0.96 1.28 l-1.78 -0.02 l0 -5.86 z M30.320000000000004 6.0600000000000005 l0 5.06 c0.48 0 0.92 0.02 1.38 0.02 c0.44 0 0.56 -0.52 0.56 -0.88 l0 -3.3 c0.02 -0.48 -0.28 -0.92 -0.66 -0.9 l-1.28 0 z"/>
  </g>
</svg>